<?xml version="1.0" encoding="utf-8" ?><svg xmlns="http://www.w3.org/2000/svg" xmlns:xlink="http://www.w3.org/1999/xlink" width="512" height="512" viewBox="232 233 560 560"><path fill="#FDFDFD" d="M0 0L1024 0L1024 1024L0 1024L0 0Z"/><path fill="#2732E5" d="M383.639 318.704C389.993 318.1 394.605 317.89 399.656 322.663C402.822 325.621 404.612 329.764 404.597 334.097C404.657 350.448 387.334 348.634 376.664 350.354C335.744 356.948 300.971 389.243 290.684 429.295C285.763 448.455 287.423 470.795 287.44 490.75C324.336 490.469 355.539 488.463 389.633 505.327C416.59 518.532 438.711 539.882 452.865 566.353C458.245 576.627 460.807 583.936 464.484 594.856L561.102 594.53C566.129 575.218 579.614 552.128 593.106 537.509C615.251 513.515 649.063 495.181 681.77 491.95C699.189 490.229 720.396 491.218 738.527 490.75C738.671 462.315 741.112 437.356 729.333 411.492C711.598 372.549 676.515 351.061 634.66 348.248C629.501 347.901 624.151 343.267 622.347 338.262C621.022 334.665 621.19 330.688 622.815 327.216C629.559 313.122 651.971 319.443 663.97 322.135C708.585 332.142 746.841 366.751 761.022 410.275C770.804 439.545 768.623 462.314 768.674 492.706L768.76 578.321L768.712 625.482C768.698 633.797 769.118 647.536 767.715 655.214C765.52 666.8 760.179 677.558 752.278 686.312C732.201 708.699 708.124 706.046 681.13 705.985L626.342 705.872L589.766 705.933C581.033 705.95 566.614 707.726 560.315 701.608C553.617 695.102 555.405 678.298 555.399 669.301C555.437 654.549 555.397 639.797 555.278 625.046C527.081 625.255 498.883 625.222 470.686 624.949C470.1 643.452 470.901 662.286 470.826 680.807C470.81 684.606 471.149 688.895 470.683 692.638C470.356 695.269 469.364 697.774 467.799 699.914C461.757 708.202 448.345 706.099 439.098 706.051L404.997 705.943L344.644 706.006C332.995 706.02 318.545 706.757 307.085 704.882C281.736 700.734 259.651 675.851 257.455 650.486C256.472 639.123 257.078 625.819 257.086 614.301C256.973 590.91 257.051 567.518 257.321 544.129L257.265 480.947C257.232 463.411 256.305 445.56 259.775 428.299C271.853 368.223 322.619 323.763 383.639 318.704Z"/><path fill="#FDFDFD" d="M287.504 521.006L313.827 520.942C350.984 520.909 379.013 526.437 406.509 554.07C425.997 573.464 437.981 599.138 440.332 626.531C441.614 640.186 440.981 661.687 440.944 675.988L340.743 675.885C332.518 675.886 322.221 676.419 314.243 675.382C280.889 671.045 287.261 634.213 287.285 609.898L287.504 521.006Z"/><path fill="#FDFDFD" d="M695.348 521.219C709.079 520.646 724.989 521.002 738.825 521.099L738.876 608.372C738.846 620.342 738.873 632.316 738.517 644.279C738.248 653.34 735.545 660.253 729.33 666.778C717.63 679.062 697.806 675.982 682.201 675.919L630.25 675.814L585.659 675.895C585.509 644.011 582.509 614.333 597.482 584.741C617.314 545.545 651.459 523.929 695.348 521.219Z"/><path fill="#2732E5" d="M622.988 398.165C641.612 395.325 659.036 408.049 661.998 426.653C664.96 445.258 652.349 462.764 633.764 465.847C615.008 468.959 597.304 456.206 594.314 437.429C591.325 418.653 604.193 401.033 622.988 398.165Z"/><path fill="#2732E5" d="M392.904 398.101C411.593 395.796 428.639 409.004 431.072 427.676C433.506 446.348 420.415 463.485 401.76 466.046C382.923 468.633 365.583 455.386 363.125 436.532C360.668 417.678 374.034 400.429 392.904 398.101Z"/><path fill="#2732E5" d="M510.633 397.736C529.542 396.679 545.713 411.18 546.715 430.092C547.717 449.003 533.169 465.133 514.254 466.08C495.417 467.023 479.369 452.547 478.371 433.713C477.373 414.879 491.802 398.788 510.633 397.736Z"/></svg>
